<svg fill='#51459e' id="Layer_1" data-name="Layer 1" xmlns="http://www.w3.org/2000/svg" viewBox="0 0 109.64 122.88"><title>cuba-peso</title><path d="M15.32,24.5V.82A.82.82,0,0,1,16.14,0H55.32C64.58,0,72.2,2.5,78.21,6.54a37.83,37.83,0,0,1,14.06,18h16.55a.82.82,0,0,1,.82.82V36.08a.82.82,0,0,1-.82.82H94.92c.07,1.25.09,2.74.07,4.23s-.08,2.87-.18,4.09h14a.82.82,0,0,1,.82.82V56.8a.82.82,0,0,1-.82.82h-17a33.19,33.19,0,0,1-14,16.44c-6.34,3.75-14.41,5.83-24.14,5.83H33.84v42.17a.82.82,0,0,1-.82.82H16.14a.82.82,0,0,1-.82-.82V57.62H.82A.82.82,0,0,1,0,56.8V46a.82.82,0,0,1,.82-.82h14.5V36.9H.82A.82.82,0,0,1,0,36.08V25.32a.82.82,0,0,1,.82-.82ZM33.84,45.22h43a37.15,37.15,0,0,0,.25-4.14,36.63,36.63,0,0,0-.16-4.18H33.84v8.32Zm37.91,12.4H33.84V66H48.15c5.91,0,10.93-.68,15-2.23a19.26,19.26,0,0,0,8.57-6.12ZM33.84,24.5H72.05A26.41,26.41,0,0,0,63,16.83a29.51,29.51,0,0,0-13.59-3.1H33.84V24.5Z"/></svg>