<?xml version="1.0" standalone="no"?>
<!DOCTYPE svg PUBLIC "-//W3C//DTD SVG 20010904//EN"
 "http://www.w3.org/TR/2001/REC-SVG-20010904/DTD/svg10.dtd">
<svg version="1.0" xmlns="http://www.w3.org/2000/svg"
 width="984.000000pt" height="984.000000pt" viewBox="0 0 984.000000 984.000000"
 preserveAspectRatio="xMidYMid meet">
<metadata>
Created by potrace 1.14, written by Peter Selinger 2001-2017
</metadata>
<g transform="translate(0.000000,984.000000) scale(0.100000,-0.100000)"
fill="#000000" stroke="none">
<path d="M1792 9834 c-37 -16 -38 -30 -37 -1006 1 -853 0 -948 -14 -949 -9 0
-272 -1 -586 -1 -559 0 -597 -2 -617 -32 -4 -6 -8 -214 -8 -462 0 -430 1 -453
19 -475 l19 -24 594 0 594 0 0 -331 0 -331 -560 -1 c-309 0 -576 -1 -593 -1
-19 -1 -42 -10 -53 -21 -19 -19 -20 -33 -20 -474 0 -430 1 -455 19 -477 l19
-23 593 -1 594 0 1 -2585 c1 -1422 2 -2588 3 -2592 1 -5 10 -17 21 -28 20 -20
33 -20 720 -20 l699 0 20 21 c20 21 20 37 22 453 0 237 1 436 0 441 0 8 0 381
0 498 0 9 0 42 0 72 0 30 0 61 0 68 0 6 0 116 0 242 0 127 0 237 0 245 0 8 0
114 0 235 0 121 0 227 0 235 0 8 0 116 0 240 0 124 0 234 0 245 0 11 -1 114
-1 229 0 115 1 211 4 213 9 9 56 10 56 0 0 -6 5 -6 13 0 6 5 30 8 52 6 47 -4
37 -4 145 0 47 1 91 -1 98 -6 6 -5 12 -6 12 -1 0 5 23 9 50 9 28 0 50 -4 50
-9 0 -5 6 -4 13 1 10 7 144 10 172 3 6 -1 12 -1 15 0 16 7 130 4 130 -4 0 -5
6 -4 13 1 10 8 134 10 162 3 6 -1 12 -1 15 0 16 7 130 4 130 -4 0 -5 6 -4 13
1 10 8 134 10 162 3 6 -1 12 -1 15 0 15 6 130 4 130 -3 0 -4 5 -5 12 -1 7 4
95 9 198 10 205 2 402 14 494 28 17 3 54 8 82 11 28 3 61 8 74 10 13 3 40 7
60 10 20 3 47 8 60 10 36 7 82 16 105 20 11 2 40 9 65 16 25 6 54 13 65 15 66
12 424 126 450 144 6 3 42 19 80 35 84 35 254 121 344 176 103 62 104 63 117
74 7 6 29 21 49 35 20 14 54 39 75 55 21 17 47 37 58 45 49 38 141 121 206
186 103 103 131 135 228 259 48 61 91 122 127 180 24 39 54 86 67 105 12 19
52 98 89 175 37 77 72 151 79 165 l12 25 693 0 693 0 19 24 c18 22 19 46 19
465 0 242 -3 451 -6 463 -7 25 -55 48 -84 40 -11 -3 -20 -1 -20 5 0 5 -5 6
-11 2 -16 -10 -149 -11 -149 -1 0 5 -5 5 -11 1 -16 -10 -149 -11 -149 -1 0 5
-5 5 -11 1 -16 -9 -149 -11 -149 -2 0 4 -7 5 -16 1 -25 -9 -384 -9 -384 0 0 5
-5 5 -11 1 -18 -11 -178 -10 -182 1 -2 6 -2 26 0 45 2 19 5 163 7 320 2 157 4
287 5 290 1 3 256 5 567 5 l566 0 19 24 c18 22 19 45 19 471 0 425 -1 449 -19
471 l-19 24 -678 0 -677 0 -15 45 c-8 25 -19 47 -24 48 -4 2 -8 10 -8 17 0 19
-82 198 -95 207 -5 4 -6 8 -2 8 5 0 -1 13 -12 29 -12 16 -21 33 -21 37 0 4
-20 40 -45 80 -25 39 -45 77 -45 83 0 6 -4 11 -10 11 -5 0 -10 7 -10 15 0 8
-4 15 -8 15 -5 0 -15 12 -23 27 -13 25 -110 159 -149 206 -8 10 -23 28 -33 40
-67 82 -103 121 -188 206 -124 124 -234 222 -324 286 -15 11 -39 29 -54 41
-38 29 -169 114 -177 114 -4 0 -15 6 -23 14 -21 19 -229 126 -311 161 -36 15
-80 34 -99 42 -18 8 -39 16 -45 17 -6 1 -15 4 -21 7 -8 5 -105 39 -125 44 -3
1 -12 5 -20 8 -8 4 -40 13 -70 21 -30 8 -72 20 -93 26 -20 6 -41 9 -46 5 -5
-3 -11 -1 -13 5 -1 5 -19 11 -38 14 -19 3 -81 14 -137 25 -57 12 -124 23 -150
26 -27 3 -66 8 -88 11 -22 2 -62 7 -90 11 -61 7 -3495 14 -3513 7z m1808
-1094 c27 -1 440 -2 510 -1 61 1 455 1 455 1 0 -1 41 -3 90 -6 156 -8 165 -8
165 -14 0 -3 12 -5 28 -6 15 0 47 -4 72 -8 25 -4 52 -9 60 -10 8 -1 29 -6 45
-9 17 -4 39 -9 50 -12 37 -8 170 -46 190 -55 11 -4 49 -18 85 -31 209 -72 480
-234 654 -390 53 -47 166 -159 161 -159 -2 0 9 -13 23 -28 43 -44 82 -91 82
-98 0 -4 8 -13 18 -20 9 -7 13 -14 7 -14 -5 -1 -695 -2 -1533 -3 l-1522 -2 -1
60 c0 47 1 286 2 340 0 6 0 80 -1 165 -1 85 -1 188 -1 228 l1 72 45 -2 c25 0
47 1 49 3 4 3 161 3 266 -1z m3085 -1862 c22 -21 22 -486 1 -633 -2 -17 -13
-21 -64 -25 -34 -3 -62 -2 -62 2 0 4 -7 5 -15 1 -23 -8 -465 -9 -465 -1 0 4
-7 5 -15 1 -24 -9 -385 -9 -385 0 0 5 -5 5 -11 1 -16 -9 -149 -11 -149 -2 0 4
-7 5 -16 1 -23 -9 -384 -10 -384 -1 0 4 -7 5 -15 1 -24 -9 -385 -9 -385 0 0 5
-5 5 -11 1 -16 -9 -149 -11 -149 -2 0 4 -7 5 -16 1 -23 -9 -384 -10 -384 -1 0
4 -7 5 -15 1 -24 -9 -465 -9 -465 0 0 5 -5 5 -10 2 -14 -8 -366 -9 -379 0 -6
3 -11 2 -11 -4 0 -7 -7 -7 -22 0 -22 10 -23 13 -21 157 1 81 2 228 3 327 l0
180 1719 0 c946 0 1722 -3 1726 -7z m-415 -1659 c0 -10 -183 -194 -230 -231
-69 -54 -178 -128 -189 -128 -5 0 -11 -3 -13 -7 -3 -8 -78 -46 -178 -91 -141
-64 -436 -141 -635 -167 -91 -12 -114 -14 -320 -31 -105 -9 -1336 -11 -1341
-2 -3 5 -11 5 -17 1 -7 -4 -32 -8 -56 -8 -32 -1 -45 3 -50 16 -3 10 -5 161 -3
336 l3 318 1514 0 c833 0 1515 -2 1515 -6z"/>
</g>
</svg>
